HIERARCHY
ROOT hip
{
	OFFSET 0.000000 0.000000 0.000000
	CHANNELS 6 Xposition Yposition Zposition Xrotation Zrotation Yrotation 
	JOINT abdomen
	{
		OFFSET 0.000000 3.422050 0.000000
		CHANNELS 3 Xrotation Zrotation Yrotation 
		JOINT chest
		{
			OFFSET 0.000000 8.486693 -0.684411
			CHANNELS 3 Xrotation Zrotation Yrotation 
			JOINT neck
			{
				OFFSET 0.000000 10.266162 -0.273764
				CHANNELS 3 Xrotation Zrotation Yrotation 
				JOINT head
				{
					OFFSET 0.000000 3.148285 0.000000
					CHANNELS 3 Xrotation Zrotation Yrotation 
					End Site
					{
						OFFSET 0.000000 3.148289 0.000000
					}
				}
			}
			JOINT lCollar
			{
				OFFSET 3.422053 6.707223 -0.821293
				CHANNELS 3 Yrotation Zrotation Xrotation 
				JOINT lShldr
				{
					OFFSET 3.285171 0.000000 0.000000
					CHANNELS 3 Zrotation Yrotation Xrotation 
					JOINT lForeArm
					{
						OFFSET 10.129278 0.000000 0.000000
						CHANNELS 3 Yrotation Zrotation Xrotation 
						JOINT lHand
						{
							OFFSET 8.486692 0.000000 0.000000
							CHANNELS 3 Zrotation Yrotation Xrotation 
							End Site
							{
								OFFSET 4.106464 0.000000 0.000000
							}
						}
					}
				}
			}
			JOINT rCollar
			{
				OFFSET -3.558935 6.707223 -0.821293
				CHANNELS 3 Yrotation Zrotation Xrotation 
				JOINT rShldr
				{
					OFFSET -3.148289 0.000000 0.000000
					CHANNELS 3 Zrotation Yrotation Xrotation 
					JOINT rForeArm
					{
						OFFSET -10.266159 0.000000 0.000000
						CHANNELS 3 Yrotation Zrotation Xrotation 
						JOINT rHand
						{
							OFFSET -8.349810 0.000000 0.000000
							CHANNELS 3 Zrotation Yrotation Xrotation 
							End Site
							{
								OFFSET -4.106464 0.000000 0.000000
							}
						}
					}
				}
			}
		}
	}
	JOINT lThigh
	{
		OFFSET 5.338403 -1.642589 1.368821
		CHANNELS 3 Xrotation Zrotation Yrotation 
		JOINT lShin
		{
			OFFSET -2.053232 -20.121670 0.000000
			CHANNELS 3 Xrotation Zrotation Yrotation 
			JOINT lFoot
			{
				OFFSET 0.000000 -19.300380 -1.231939
				CHANNELS 3 Xrotation Yrotation Zrotation 
				End Site
				{
					OFFSET 0.000000 -2.463878 4.653993
				}
			}
		}
	}
	JOINT rThigh
	{
		OFFSET -5.338403 -1.642589 1.368821
		CHANNELS 3 Xrotation Zrotation Yrotation 
		JOINT rShin
		{
			OFFSET 2.053232 -20.121670 0.000000
			CHANNELS 3 Xrotation Zrotation Yrotation 
			JOINT rFoot
			{
				OFFSET 0.000000 -19.300380 -1.231939
				CHANNELS 3 Xrotation Yrotation Zrotation 
				End Site
				{
					OFFSET 0.000000 -2.463878 4.653993
				}
			}
		}
	}
}
MOTION
Frames: 16
Frame Time: 0.049989
0.000000 43.528500 0.000000 0.000000 0.000000 0.000000 0.000000 0.000000 0.000000 0.000000 0.000000 0.000000 0.000000 0.000000 0.000000 0.000000 0.000000 0.000000 0.000000 0.000000 0.000000 0.000000 0.000000 0.000000 0.000000 0.000000 0.000000 0.000000 0.000000 0.000000 0.000000 0.000000 0.000000 0.000000 0.000000 0.000000 0.000000 0.000000 0.000000 0.000000 0.000000 0.000000 0.000000 0.000000 0.000000 0.000000 0.000000 0.000000 0.000000 0.000000 0.000000 0.000000 0.000000 0.000000 0.000000 0.000000 0.000000 0.000000 0.000000 0.000000 
0.000000 6.170990 0.000000 -89.999779 -0.002623 -49.999363 12.188087 -20.743301 -8.352746 11.072721 -23.566490 -16.182024 -0.786815 -27.171150 7.936824 -1.744937 -0.847306 29.281582 -25.307589 -20.089336 5.458204 -2.002215 27.995876 -42.001587 -40.003078 4.998402 6.997588 0.999072 -20.001410 -60.001102 -33.415890 -0.501157 3.938049 13.398548 25.751101 35.311218 65.496048 -43.172878 22.569384 6.067425 2.971799 10.634416 -77.461182 45.788879 37.295521 -1.934861 -6.953395 0.560822 14.547503 -7.035583 6.430655 -79.087379 -30.997652 9.563595 70.542381 -3.048705 -0.205015 15.138027 0.134572 15.988832 
0.000000 6.170990 0.000000 -90.000717 -1.219030 -49.999382 13.103726 -20.004622 -8.495373 11.890155 -23.742483 -16.298353 -1.352273 -26.962402 8.001760 -2.100109 -0.639846 29.323298 -25.307585 -20.089334 5.458204 -2.024546 28.048153 -39.988605 -41.218868 4.998442 6.997517 0.999071 -20.001408 -60.001095 -33.194687 -0.366801 4.099149 13.398548 25.751101 35.311218 64.736328 -43.051064 22.054300 5.185095 3.062849 10.008491 -77.499107 45.968769 37.453075 -1.934861 -6.953394 0.560822 14.579455 -8.228299 6.646740 -77.375481 -30.657202 8.723633 70.262497 -2.986078 -0.192261 15.159571 -0.096010 16.144022 
0.000000 6.170990 0.000000 -90.001686 -2.437665 -49.999386 14.014672 -19.262707 -8.625020 12.709727 -23.917086 -16.417675 -1.917428 -26.752708 8.064372 -2.455436 -0.431944 29.363752 -25.307589 -20.089336 5.458204 -2.044894 28.101368 -37.964325 -42.436890 4.998484 6.997448 0.999072 -20.001410 -60.001102 -32.973824 -0.231810 4.259745 13.398548 25.751101 35.311218 63.979382 -42.924236 21.542313 4.300535 3.144364 9.380322 -77.536438 46.148735 37.610973 -1.934862 -6.953395 0.560822 14.616140 -9.423038 6.864594 -75.670921 -30.294386 7.896541 69.982613 -2.923383 -0.179813 15.181738 -0.326556 16.299313 
0.000000 6.170990 0.000000 -90.002625 -3.658237 -49.999367 14.921088 -18.517893 -8.741794 13.531359 -24.090214 -16.539959 -2.482270 -26.542122 8.124661 -2.810918 -0.223613 29.402950 -25.307587 -20.089334 5.458204 -2.063185 28.155418 -35.929890 -43.656837 4.998526 6.997379 0.999072 -20.001408 -60.001102 -32.753330 -0.096188 4.419834 13.398548 25.751099 35.311214 63.225342 -42.792442 21.033554 3.413999 3.216261 8.750159 -77.573181 46.328796 37.769249 -1.934861 -6.953394 0.560822 14.657651 -10.619525 7.084377 -73.974869 -29.909641 7.083401 69.702721 -2.860623 -0.167672 15.204535 -0.557059 16.454712 
0.000000 6.170990 0.000000 -90.003586 -4.880476 -49.999321 15.823141 -17.770525 -8.845802 14.354988 -24.261822 -16.665194 -3.046782 -26.330648 8.182612 -3.166556 -0.014867 29.440895 -25.307589 -20.089336 5.458204 -2.079353 28.210218 -33.886539 -44.878468 4.998571 6.997311 0.999072 -20.001410 -60.001102 -32.533195 0.040060 4.579413 13.398548 25.751101 35.311218 62.474308 -42.655708 20.528141 2.525748 3.278469 8.118264 -77.609314 46.508926 37.927879 -1.934861 -6.953395 0.560822 14.704089 -11.817472 7.306262 -72.288322 -29.503426 6.285213 69.422859 -2.797800 -0.155838 15.227960 -0.787516 16.610222 
0.000000 6.170990 0.000000 -90.004532 -6.104116 -49.999268 16.720997 -17.020933 -8.937153 15.180545 -24.431858 -16.793362 -3.610951 -26.118326 8.238225 -3.522349 0.194282 29.477564 -25.307587 -20.089334 5.458203 -2.093342 28.265682 -31.835512 -46.101482 4.998619 6.997244 0.999072 -20.001408 -60.001102 -32.313419 0.176930 4.738479 13.398547 25.751099 35.311214 61.726437 -42.514107 20.026203 1.636046 3.330927 7.484898 -77.644836 46.689129 38.086872 -1.934861 -6.953394 0.560822 14.755567 -13.016589 7.530422 -70.612350 -29.076290 5.502928 69.142990 -2.734915 -0.144311 15.252010 -1.017923 16.765841 
0.000000 6.170990 0.000000 -90.005493 -7.328875 -49.999184 17.614819 -16.269461 -9.015958 16.007946 -24.600246 -16.924427 -4.174765 -25.905190 8.291494 -3.878299 0.403822 29.512968 -25.307589 -20.089336 5.458204 -2.105103 28.321690 -29.778074 -47.325623 4.998666 6.997178 0.999072 -20.001410 -60.001102 -32.094025 0.314415 4.897032 13.398548 25.751101 35.311218 60.981869 -42.367676 19.527878 0.745159 3.373583 6.850322 -77.679787 46.869423 38.246258 -1.934862 -6.953395 0.560822 14.812196 -14.216590 7.757040 -68.947830 -28.628820 4.737410 68.863121 -2.671972 -0.133092 15.276696 -1.248274 16.921581 
0.000000 6.170990 0.000000 -90.006462 -8.554478 -49.999077 18.504782 -15.516457 -9.082335 16.837126 -24.766945 -17.058376 -4.738210 -25.691269 8.342416 -4.234404 0.613739 29.547091 -25.307585 -20.089333 5.458204 -2.114593 28.378143 -27.715534 -48.550606 4.998717 6.997115 0.999072 -20.001408 -60.001102 -31.874994 0.452512 5.055065 13.398547 25.751099 35.311214 60.240669 -42.216465 19.033255 -0.146643 3.406395 6.214804 -77.714081 47.049778 38.406025 -1.934861 -6.953394 0.560822 14.874106 -15.417178 7.986302 -67.295670 -28.161636 3.989468 68.583298 -2.608973 -0.122180 15.302008 -1.478566 17.077440 
0.000000 6.170990 0.000000 -90.007439 -9.780642 -49.998959 19.391031 -14.762241 -9.136391 17.668013 -24.931904 -17.195181 -5.301270 -25.476578 8.390980 -4.590664 0.824020 29.579937 -25.307589 -20.089336 5.458204 -2.121779 28.434946 -25.649212 -49.776146 4.998768 6.997052 0.999072 -20.001410 -60.001102 -31.656332 0.591216 5.212576 13.398548 25.751101 35.311218 59.502991 -42.060524 18.542463 -1.039089 3.429334 5.578614 -77.747765 47.230202 38.566170 -1.934861 -6.953395 0.560822 14.941435 -16.618063 8.218409 -65.656624 -27.675398 3.259817 68.303482 -2.545920 -0.111577 15.327947 -1.708793 17.233421 
0.000000 6.170990 0.000000 -90.008423 -11.007085 -49.998817 20.273739 -14.007154 -9.178241 18.500521 -25.095049 -17.334805 -5.863937 -25.261162 8.437187 -4.947080 1.034652 29.611494 -25.307587 -20.089334 5.458204 -2.126638 28.491966 -23.580423 -51.001972 4.998820 6.996990 0.999073 -20.001410 -60.001102 -31.438040 0.730521 5.369564 13.398546 25.751099 35.311211 58.768902 -41.899906 18.055595 -1.931906 3.442379 4.942020 -77.780823 47.410698 38.726704 -1.934861 -6.953394 0.560822 15.014327 -17.818947 8.453563 -64.031433 -27.170822 2.549110 68.023689 -2.482815 -0.101283 15.354522 -1.938951 17.389528 
0.000000 6.170990 0.000000 -90.009392 -12.233525 -49.998638 21.153067 -13.251538 -9.208004 19.334576 -25.256340 -17.477224 -6.426195 -25.045052 8.481037 -5.303652 1.245622 29.641764 -25.307589 -20.089336 5.458204 -2.129151 28.549107 -21.510523 -52.227779 4.998873 6.996927 0.999072 -20.001410 -60.001102 -31.220119 0.870423 5.526024 13.398548 25.751101 35.311218 58.038570 -41.734695 17.572773 -2.824821 3.445520 4.305295 -77.813225 47.591244 38.887646 -1.934862 -6.953395 0.560822 15.092940 -19.019526 8.691978 -62.420731 -26.648630 1.857923 67.743904 -2.419660 -0.091298 15.381724 -2.169036 17.545765 
0.000000 6.170990 0.000000 -90.010414 -13.459692 -49.998459 22.029161 -12.495719 -9.225794 20.170095 -25.415722 -17.622400 -6.988033 -24.828268 8.522525 -5.660381 1.456917 29.670746 -25.307585 -20.089334 5.458203 -2.129314 28.606251 -19.440853 -53.453323 4.998927 6.996866 0.999072 -20.001410 -60.001102 -31.002588 1.010916 5.681957 13.398546 25.751101 35.311211 57.312042 -41.564930 17.094074 -3.717560 3.438758 3.668710 -77.845009 47.771858 39.048988 -1.934861 -6.953394 0.560822 15.177452 -20.219519 8.933884 -60.825115 -26.109596 1.186756 67.464172 -2.356458 -0.081622 15.409563 -2.399044 17.702137 
0.000000 6.170990 0.000000 -90.011414 -14.685293 -49.998241 22.902185 -11.740026 -9.231726 21.007004 -25.573145 -17.770306 -7.549437 -24.610849 8.561648 -6.017267 1.668523 29.698435 -25.307589 -20.089336 5.458204 -2.127130 28.663296 -17.372763 -54.678291 4.998981 6.996806 0.999072 -20.001410 -60.001102 -30.785429 1.151996 5.837357 13.398548 25.751101 35.311218 56.589424 -41.390659 16.619600 -4.609850 3.422106 3.032536 -77.876129 47.952530 39.210751 -1.934861 -6.953395 0.560822 15.268034 -21.418615 9.179510 -59.245075 -25.554493 0.536036 67.184456 -2.293211 -0.072256 15.438032 -2.628969 17.858643 
0.000000 6.170990 0.000000 -90.012444 -15.910053 -49.998013 23.772295 -10.984797 -9.225923 21.845207 -25.728550 -17.920891 -8.110394 -24.392824 8.598405 -6.374310 1.880427 29.724813 -25.307587 -20.089333 5.458204 -2.122610 28.720116 -15.307587 -55.902435 4.999040 6.996749 0.999071 -20.001408 -60.001102 -30.568651 1.293657 5.992222 13.398548 25.751101 35.311218 55.870815 -41.211964 16.149437 -5.501416 3.395582 2.397041 -77.906593 48.133244 39.372906 -1.934861 -6.953394 0.560822 15.364886 -22.616514 9.429106 -57.681080 -24.984152 -0.093880 66.904778 -2.229922 -0.063200 15.467129 -2.858807 18.015282 
0.000000 6.170990 0.000000 -90.013466 -17.133701 -49.997749 24.639635 -10.230351 -9.208500 22.684626 -25.881891 -18.074123 -8.670894 -24.174221 8.632796 -6.731511 2.092616 29.749897 -25.307589 -20.089336 5.458205 -2.115775 28.776611 -13.246650 -57.125462 4.999100 6.996694 0.999072 -20.001410 -60.001102 -30.352247 1.435894 6.146550 13.398548 25.751101 35.311218 55.156284 -41.028900 15.683666 -6.391992 3.359223 1.762495 -77.936409 48.314022 39.535511 -1.934862 -6.953395 0.560822 15.468213 -23.812920 9.682927 -56.133472 -24.399382 -0.702707 66.625137 -2.166593 -0.054454 15.496866 -3.088555 18.172068 
